<mxfile host="app.diagrams.net" modified="2023-03-09T10:06:57.306Z" agent="5.0 (Windows NT 10.0; Win64; x64) AppleWebKit/537.36 (KHTML, like Gecko) Chrome/110.0.0.0 Safari/537.36" etag="4ZmMfOBUcALfOxoCsS3D" version="21.0.2" type="github">
  <diagram name="Page-1" id="acsS1jJRG9vaDXG1VXjJ">
    <mxGraphModel dx="836" dy="486" grid="1" gridSize="10" guides="1" tooltips="1" connect="1" arrows="1" fold="1" page="1" pageScale="1" pageWidth="850" pageHeight="1100" math="0" shadow="0">
      <root>
        <mxCell id="0" />
        <mxCell id="1" parent="0" />
        <mxCell id="3LhdG9QH1c0bQ25rFq1M-43" style="edgeStyle=orthogonalEdgeStyle;rounded=0;orthogonalLoop=1;jettySize=auto;html=1;entryX=0.5;entryY=0;entryDx=0;entryDy=0;" edge="1" parent="1" source="3LhdG9QH1c0bQ25rFq1M-1" target="3LhdG9QH1c0bQ25rFq1M-3">
          <mxGeometry relative="1" as="geometry" />
        </mxCell>
        <mxCell id="3LhdG9QH1c0bQ25rFq1M-44" style="edgeStyle=orthogonalEdgeStyle;rounded=0;orthogonalLoop=1;jettySize=auto;html=1;entryX=0.5;entryY=0;entryDx=0;entryDy=0;" edge="1" parent="1" source="3LhdG9QH1c0bQ25rFq1M-1" target="3LhdG9QH1c0bQ25rFq1M-2">
          <mxGeometry relative="1" as="geometry" />
        </mxCell>
        <mxCell id="3LhdG9QH1c0bQ25rFq1M-1" value="Start" style="ellipse;whiteSpace=wrap;html=1;" vertex="1" parent="1">
          <mxGeometry x="340" y="260" width="80" height="40" as="geometry" />
        </mxCell>
        <mxCell id="3LhdG9QH1c0bQ25rFq1M-8" value="" style="edgeStyle=orthogonalEdgeStyle;rounded=0;orthogonalLoop=1;jettySize=auto;html=1;" edge="1" parent="1" source="3LhdG9QH1c0bQ25rFq1M-2" target="3LhdG9QH1c0bQ25rFq1M-7">
          <mxGeometry relative="1" as="geometry" />
        </mxCell>
        <mxCell id="3LhdG9QH1c0bQ25rFq1M-2" value="Medical Request" style="rounded=0;whiteSpace=wrap;html=1;" vertex="1" parent="1">
          <mxGeometry x="180" y="330" width="120" height="60" as="geometry" />
        </mxCell>
        <mxCell id="3LhdG9QH1c0bQ25rFq1M-26" value="" style="edgeStyle=orthogonalEdgeStyle;rounded=0;orthogonalLoop=1;jettySize=auto;html=1;" edge="1" parent="1" source="3LhdG9QH1c0bQ25rFq1M-3" target="3LhdG9QH1c0bQ25rFq1M-25">
          <mxGeometry relative="1" as="geometry" />
        </mxCell>
        <mxCell id="3LhdG9QH1c0bQ25rFq1M-3" value="Hospital Request" style="rounded=0;whiteSpace=wrap;html=1;" vertex="1" parent="1">
          <mxGeometry x="450" y="330" width="120" height="60" as="geometry" />
        </mxCell>
        <mxCell id="3LhdG9QH1c0bQ25rFq1M-4" value="Employee" style="shape=document;whiteSpace=wrap;html=1;boundedLbl=1;fontSize=9;" vertex="1" parent="1">
          <mxGeometry x="250" y="370" width="60" height="40" as="geometry" />
        </mxCell>
        <mxCell id="3LhdG9QH1c0bQ25rFq1M-6" value="&lt;font style=&quot;font-size: 9px;&quot;&gt;HR User&lt;/font&gt;" style="shape=document;whiteSpace=wrap;html=1;boundedLbl=1;" vertex="1" parent="1">
          <mxGeometry x="520" y="370" width="60" height="40" as="geometry" />
        </mxCell>
        <mxCell id="3LhdG9QH1c0bQ25rFq1M-10" value="" style="edgeStyle=orthogonalEdgeStyle;rounded=0;orthogonalLoop=1;jettySize=auto;html=1;" edge="1" parent="1" source="3LhdG9QH1c0bQ25rFq1M-7" target="3LhdG9QH1c0bQ25rFq1M-9">
          <mxGeometry relative="1" as="geometry" />
        </mxCell>
        <mxCell id="3LhdG9QH1c0bQ25rFq1M-52" style="edgeStyle=orthogonalEdgeStyle;rounded=0;orthogonalLoop=1;jettySize=auto;html=1;entryX=0;entryY=0.5;entryDx=0;entryDy=0;" edge="1" parent="1" source="3LhdG9QH1c0bQ25rFq1M-7" target="3LhdG9QH1c0bQ25rFq1M-2">
          <mxGeometry relative="1" as="geometry">
            <Array as="points">
              <mxPoint x="140" y="460" />
              <mxPoint x="140" y="360" />
            </Array>
          </mxGeometry>
        </mxCell>
        <mxCell id="3LhdG9QH1c0bQ25rFq1M-7" value="Approved?" style="rhombus;whiteSpace=wrap;html=1;rounded=0;" vertex="1" parent="1">
          <mxGeometry x="180" y="430" width="120" height="60" as="geometry" />
        </mxCell>
        <mxCell id="3LhdG9QH1c0bQ25rFq1M-12" value="" style="edgeStyle=orthogonalEdgeStyle;rounded=0;orthogonalLoop=1;jettySize=auto;html=1;" edge="1" parent="1" source="3LhdG9QH1c0bQ25rFq1M-9" target="3LhdG9QH1c0bQ25rFq1M-11">
          <mxGeometry relative="1" as="geometry" />
        </mxCell>
        <mxCell id="3LhdG9QH1c0bQ25rFq1M-9" value="Generate Cash Proof" style="whiteSpace=wrap;html=1;rounded=0;" vertex="1" parent="1">
          <mxGeometry x="180" y="520" width="120" height="60" as="geometry" />
        </mxCell>
        <mxCell id="3LhdG9QH1c0bQ25rFq1M-14" value="" style="edgeStyle=orthogonalEdgeStyle;rounded=0;orthogonalLoop=1;jettySize=auto;html=1;" edge="1" parent="1" source="3LhdG9QH1c0bQ25rFq1M-11" target="3LhdG9QH1c0bQ25rFq1M-13">
          <mxGeometry relative="1" as="geometry" />
        </mxCell>
        <mxCell id="3LhdG9QH1c0bQ25rFq1M-11" value="Generate Bank Transfer" style="whiteSpace=wrap;html=1;rounded=0;" vertex="1" parent="1">
          <mxGeometry x="180" y="610" width="120" height="60" as="geometry" />
        </mxCell>
        <mxCell id="3LhdG9QH1c0bQ25rFq1M-16" value="" style="edgeStyle=orthogonalEdgeStyle;rounded=0;orthogonalLoop=1;jettySize=auto;html=1;entryX=0.5;entryY=0;entryDx=0;entryDy=0;" edge="1" parent="1" source="3LhdG9QH1c0bQ25rFq1M-13" target="3LhdG9QH1c0bQ25rFq1M-57">
          <mxGeometry relative="1" as="geometry">
            <Array as="points" />
          </mxGeometry>
        </mxCell>
        <mxCell id="3LhdG9QH1c0bQ25rFq1M-13" value="Confirm Bank Transfer" style="whiteSpace=wrap;html=1;rounded=0;" vertex="1" parent="1">
          <mxGeometry x="180" y="700" width="120" height="60" as="geometry" />
        </mxCell>
        <mxCell id="3LhdG9QH1c0bQ25rFq1M-46" value="" style="edgeStyle=orthogonalEdgeStyle;rounded=0;orthogonalLoop=1;jettySize=auto;html=1;" edge="1" parent="1" source="3LhdG9QH1c0bQ25rFq1M-15" target="3LhdG9QH1c0bQ25rFq1M-45">
          <mxGeometry relative="1" as="geometry" />
        </mxCell>
        <mxCell id="3LhdG9QH1c0bQ25rFq1M-15" value="Hospital &amp;amp; Medical Payroll Report" style="whiteSpace=wrap;html=1;rounded=0;" vertex="1" parent="1">
          <mxGeometry x="330" y="900" width="120" height="60" as="geometry" />
        </mxCell>
        <mxCell id="3LhdG9QH1c0bQ25rFq1M-17" value="&lt;font size=&quot;1&quot;&gt;Medical Adm&lt;/font&gt;" style="shape=document;whiteSpace=wrap;html=1;boundedLbl=1;" vertex="1" parent="1">
          <mxGeometry x="250" y="561" width="60" height="30" as="geometry" />
        </mxCell>
        <mxCell id="3LhdG9QH1c0bQ25rFq1M-18" value="&lt;font size=&quot;1&quot;&gt;Medical Adm&lt;/font&gt;" style="shape=document;whiteSpace=wrap;html=1;boundedLbl=1;" vertex="1" parent="1">
          <mxGeometry x="250" y="660" width="60" height="30" as="geometry" />
        </mxCell>
        <mxCell id="3LhdG9QH1c0bQ25rFq1M-19" value="&lt;font size=&quot;1&quot;&gt;Medical Adm&lt;/font&gt;" style="shape=document;whiteSpace=wrap;html=1;boundedLbl=1;" vertex="1" parent="1">
          <mxGeometry x="250" y="750" width="60" height="30" as="geometry" />
        </mxCell>
        <mxCell id="3LhdG9QH1c0bQ25rFq1M-20" value="&lt;font size=&quot;1&quot;&gt;Medical Adm&lt;/font&gt;" style="shape=document;whiteSpace=wrap;html=1;boundedLbl=1;" vertex="1" parent="1">
          <mxGeometry x="300" y="950" width="60" height="30" as="geometry" />
        </mxCell>
        <mxCell id="3LhdG9QH1c0bQ25rFq1M-21" value="&lt;font size=&quot;1&quot;&gt;Hospital Adm&lt;/font&gt;" style="shape=document;whiteSpace=wrap;html=1;boundedLbl=1;" vertex="1" parent="1">
          <mxGeometry x="420" y="950" width="70" height="30" as="geometry" />
        </mxCell>
        <mxCell id="3LhdG9QH1c0bQ25rFq1M-39" style="edgeStyle=orthogonalEdgeStyle;rounded=0;orthogonalLoop=1;jettySize=auto;html=1;entryX=0.5;entryY=0;entryDx=0;entryDy=0;" edge="1" parent="1" source="3LhdG9QH1c0bQ25rFq1M-25" target="3LhdG9QH1c0bQ25rFq1M-30">
          <mxGeometry relative="1" as="geometry" />
        </mxCell>
        <mxCell id="3LhdG9QH1c0bQ25rFq1M-51" style="edgeStyle=orthogonalEdgeStyle;rounded=0;orthogonalLoop=1;jettySize=auto;html=1;entryX=1;entryY=0.5;entryDx=0;entryDy=0;" edge="1" parent="1" source="3LhdG9QH1c0bQ25rFq1M-25" target="3LhdG9QH1c0bQ25rFq1M-3">
          <mxGeometry relative="1" as="geometry">
            <Array as="points">
              <mxPoint x="620" y="460" />
              <mxPoint x="620" y="360" />
            </Array>
          </mxGeometry>
        </mxCell>
        <mxCell id="3LhdG9QH1c0bQ25rFq1M-25" value="Approved?" style="rhombus;whiteSpace=wrap;html=1;rounded=0;" vertex="1" parent="1">
          <mxGeometry x="450" y="430" width="120" height="60" as="geometry" />
        </mxCell>
        <mxCell id="3LhdG9QH1c0bQ25rFq1M-29" value="" style="edgeStyle=orthogonalEdgeStyle;rounded=0;orthogonalLoop=1;jettySize=auto;html=1;" edge="1" parent="1" source="3LhdG9QH1c0bQ25rFq1M-30" target="3LhdG9QH1c0bQ25rFq1M-32">
          <mxGeometry relative="1" as="geometry" />
        </mxCell>
        <mxCell id="3LhdG9QH1c0bQ25rFq1M-30" value="Generate Cash Proof" style="whiteSpace=wrap;html=1;rounded=0;" vertex="1" parent="1">
          <mxGeometry x="450" y="520" width="120" height="60" as="geometry" />
        </mxCell>
        <mxCell id="3LhdG9QH1c0bQ25rFq1M-31" value="" style="edgeStyle=orthogonalEdgeStyle;rounded=0;orthogonalLoop=1;jettySize=auto;html=1;" edge="1" parent="1" source="3LhdG9QH1c0bQ25rFq1M-32" target="3LhdG9QH1c0bQ25rFq1M-33">
          <mxGeometry relative="1" as="geometry" />
        </mxCell>
        <mxCell id="3LhdG9QH1c0bQ25rFq1M-32" value="Generate Bank Transfer" style="whiteSpace=wrap;html=1;rounded=0;" vertex="1" parent="1">
          <mxGeometry x="450" y="610" width="120" height="60" as="geometry" />
        </mxCell>
        <mxCell id="3LhdG9QH1c0bQ25rFq1M-42" style="edgeStyle=orthogonalEdgeStyle;rounded=0;orthogonalLoop=1;jettySize=auto;html=1;entryX=0.5;entryY=0;entryDx=0;entryDy=0;" edge="1" parent="1" source="3LhdG9QH1c0bQ25rFq1M-33" target="3LhdG9QH1c0bQ25rFq1M-60">
          <mxGeometry relative="1" as="geometry" />
        </mxCell>
        <mxCell id="3LhdG9QH1c0bQ25rFq1M-33" value="Confirm Bank Transfer" style="whiteSpace=wrap;html=1;rounded=0;" vertex="1" parent="1">
          <mxGeometry x="450" y="700" width="120" height="60" as="geometry" />
        </mxCell>
        <mxCell id="3LhdG9QH1c0bQ25rFq1M-34" value="&lt;font size=&quot;1&quot;&gt;Hospital adm&lt;/font&gt;" style="shape=document;whiteSpace=wrap;html=1;boundedLbl=1;" vertex="1" parent="1">
          <mxGeometry x="520" y="561" width="70" height="30" as="geometry" />
        </mxCell>
        <mxCell id="3LhdG9QH1c0bQ25rFq1M-40" value="&lt;font size=&quot;1&quot;&gt;Hospital adm&lt;/font&gt;" style="shape=document;whiteSpace=wrap;html=1;boundedLbl=1;" vertex="1" parent="1">
          <mxGeometry x="520" y="660" width="70" height="30" as="geometry" />
        </mxCell>
        <mxCell id="3LhdG9QH1c0bQ25rFq1M-41" value="&lt;font size=&quot;1&quot;&gt;Hospital adm&lt;/font&gt;" style="shape=document;whiteSpace=wrap;html=1;boundedLbl=1;" vertex="1" parent="1">
          <mxGeometry x="520" y="750" width="70" height="30" as="geometry" />
        </mxCell>
        <mxCell id="3LhdG9QH1c0bQ25rFq1M-48" value="" style="edgeStyle=orthogonalEdgeStyle;rounded=0;orthogonalLoop=1;jettySize=auto;html=1;" edge="1" parent="1" source="3LhdG9QH1c0bQ25rFq1M-45" target="3LhdG9QH1c0bQ25rFq1M-47">
          <mxGeometry relative="1" as="geometry" />
        </mxCell>
        <mxCell id="3LhdG9QH1c0bQ25rFq1M-45" value="Contract Temp Attribute Payroll" style="whiteSpace=wrap;html=1;rounded=0;" vertex="1" parent="1">
          <mxGeometry x="330" y="1010" width="120" height="60" as="geometry" />
        </mxCell>
        <mxCell id="3LhdG9QH1c0bQ25rFq1M-50" value="" style="edgeStyle=orthogonalEdgeStyle;rounded=0;orthogonalLoop=1;jettySize=auto;html=1;" edge="1" parent="1" source="3LhdG9QH1c0bQ25rFq1M-47" target="3LhdG9QH1c0bQ25rFq1M-49">
          <mxGeometry relative="1" as="geometry" />
        </mxCell>
        <mxCell id="3LhdG9QH1c0bQ25rFq1M-47" value="Payroll Process" style="whiteSpace=wrap;html=1;rounded=0;" vertex="1" parent="1">
          <mxGeometry x="330" y="1090" width="120" height="60" as="geometry" />
        </mxCell>
        <mxCell id="3LhdG9QH1c0bQ25rFq1M-49" value="End" style="ellipse;whiteSpace=wrap;html=1;" vertex="1" parent="1">
          <mxGeometry x="350" y="1180" width="80" height="40" as="geometry" />
        </mxCell>
        <mxCell id="3LhdG9QH1c0bQ25rFq1M-53" value="Yes" style="text;html=1;strokeColor=none;fillColor=none;align=center;verticalAlign=middle;whiteSpace=wrap;rounded=0;" vertex="1" parent="1">
          <mxGeometry x="240" y="490" width="60" height="30" as="geometry" />
        </mxCell>
        <mxCell id="3LhdG9QH1c0bQ25rFq1M-54" value="Yes" style="text;html=1;strokeColor=none;fillColor=none;align=center;verticalAlign=middle;whiteSpace=wrap;rounded=0;" vertex="1" parent="1">
          <mxGeometry x="520" y="490" width="60" height="30" as="geometry" />
        </mxCell>
        <mxCell id="3LhdG9QH1c0bQ25rFq1M-55" value="No" style="text;html=1;strokeColor=none;fillColor=none;align=center;verticalAlign=middle;whiteSpace=wrap;rounded=0;" vertex="1" parent="1">
          <mxGeometry x="608" y="390" width="60" height="30" as="geometry" />
        </mxCell>
        <mxCell id="3LhdG9QH1c0bQ25rFq1M-56" value="No" style="text;html=1;strokeColor=none;fillColor=none;align=center;verticalAlign=middle;whiteSpace=wrap;rounded=0;" vertex="1" parent="1">
          <mxGeometry x="92" y="396" width="60" height="30" as="geometry" />
        </mxCell>
        <mxCell id="3LhdG9QH1c0bQ25rFq1M-59" style="edgeStyle=orthogonalEdgeStyle;rounded=0;orthogonalLoop=1;jettySize=auto;html=1;entryX=0;entryY=0.5;entryDx=0;entryDy=0;" edge="1" parent="1" source="3LhdG9QH1c0bQ25rFq1M-57" target="3LhdG9QH1c0bQ25rFq1M-15">
          <mxGeometry relative="1" as="geometry">
            <Array as="points">
              <mxPoint x="240" y="930" />
            </Array>
          </mxGeometry>
        </mxCell>
        <mxCell id="3LhdG9QH1c0bQ25rFq1M-57" value="Close Bank Transfer" style="whiteSpace=wrap;html=1;rounded=0;" vertex="1" parent="1">
          <mxGeometry x="180" y="810" width="120" height="60" as="geometry" />
        </mxCell>
        <mxCell id="3LhdG9QH1c0bQ25rFq1M-58" value="&lt;font size=&quot;1&quot;&gt;Medical Adm&lt;/font&gt;" style="shape=document;whiteSpace=wrap;html=1;boundedLbl=1;" vertex="1" parent="1">
          <mxGeometry x="250" y="860" width="60" height="30" as="geometry" />
        </mxCell>
        <mxCell id="3LhdG9QH1c0bQ25rFq1M-61" style="edgeStyle=orthogonalEdgeStyle;rounded=0;orthogonalLoop=1;jettySize=auto;html=1;entryX=1;entryY=0.5;entryDx=0;entryDy=0;" edge="1" parent="1" source="3LhdG9QH1c0bQ25rFq1M-60" target="3LhdG9QH1c0bQ25rFq1M-15">
          <mxGeometry relative="1" as="geometry" />
        </mxCell>
        <mxCell id="3LhdG9QH1c0bQ25rFq1M-60" value="Close Bank Transfer" style="whiteSpace=wrap;html=1;rounded=0;" vertex="1" parent="1">
          <mxGeometry x="450" y="810" width="120" height="60" as="geometry" />
        </mxCell>
        <mxCell id="3LhdG9QH1c0bQ25rFq1M-62" value="&lt;font size=&quot;1&quot;&gt;Hospital adm&lt;/font&gt;" style="shape=document;whiteSpace=wrap;html=1;boundedLbl=1;" vertex="1" parent="1">
          <mxGeometry x="520" y="860" width="70" height="30" as="geometry" />
        </mxCell>
      </root>
    </mxGraphModel>
  </diagram>
</mxfile>
